<?xml version="1.0" standalone="no"?>
<!DOCTYPE svg PUBLIC "-//W3C//DTD SVG 20010904//EN"
 "http://www.w3.org/TR/2001/REC-SVG-20010904/DTD/svg10.dtd">
<svg version="1.0" xmlns="http://www.w3.org/2000/svg"
 width="2284.000000pt" height="2753.000000pt" viewBox="0 0 2284.000000 2753.000000"
 preserveAspectRatio="xMidYMid meet">
<metadata>
Created by potrace 1.13, written by Peter Selinger 2001-2015
</metadata>
<g transform="translate(0.000000,2753.000000) scale(0.100000,-0.100000)"
fill="#000000" stroke="none">
<path d="M20967 27522 c-9 -2 -17 -9 -17 -16 0 -28 27 -45 78 -50 87 -9 126
-47 138 -136 l5 -35 -695 1 c-383 1 -696 0 -696 -2 0 -2 5 -14 11 -28 9 -18
22 -26 57 -31 88 -13 119 -32 139 -83 17 -44 18 -113 18 -1187 0 -1084 -1
-1142 -18 -1177 -21 -42 -65 -66 -136 -75 -39 -4 -51 -10 -60 -30 -6 -13 -11
-26 -11 -28 0 -3 166 -5 369 -5 l369 0 -11 29 c-9 25 -17 29 -56 33 -63 6
-119 35 -139 72 -16 29 -17 116 -20 1127 l-2 1096 440 0 440 1 -2 -1097 -3
-1096 -23 -37 c-24 -39 -87 -68 -148 -68 -30 0 -43 -16 -44 -52 0 -5 164 -8
364 -8 l365 0 -10 30 c-8 22 -17 30 -36 30 -48 0 -112 22 -136 48 -16 18 -28
46 -34 82 -5 30 -8 530 -8 1110 l0 1055 440 0 440 0 0 -1085 c-1 -1059 -1
-1086 -20 -1125 -24 -48 -66 -74 -134 -82 -43 -5 -53 -10 -65 -34 l-14 -29
369 0 c203 0 369 2 369 5 0 2 -5 15 -11 28 -9 20 -21 26 -59 30 -59 7 -104 29
-125 61 -9 13 -19 55 -23 93 -4 37 -7 559 -7 1158 0 1078 1 1090 21 1129 23
45 67 72 134 81 50 7 57 11 62 40 3 20 -3 20 -678 21 -374 0 -685 4 -691 7
-14 9 1 78 23 112 19 29 82 55 132 55 33 0 39 4 49 30 8 23 8 30 0 31 -48 2
-687 3 -700 1z"/>
<path d="M7 27448 c7 -62 7 -539 0 -615 -3 -29 -3 -54 0 -57 3 -2 17 0 33 5
24 9 28 17 34 62 10 74 32 113 74 134 35 17 79 18 689 19 l652 2 -51 -82 c-28
-44 -68 -108 -88 -141 -21 -33 -131 -208 -245 -390 -114 -181 -215 -343 -225
-360 -19 -32 -292 -468 -345 -550 -18 -27 -78 -124 -135 -215 -56 -91 -111
-178 -121 -195 -11 -16 -73 -115 -139 -220 l-119 -190 102 -2 c56 -2 469 -4
917 -5 762 -3 817 -4 851 -21 42 -21 69 -70 74 -136 4 -50 2 -47 37 -56 24 -6
27 -4 30 22 2 15 0 55 -3 88 -9 76 -8 422 0 495 3 30 5 69 3 86 -3 31 -4 31
-33 21 -20 -8 -29 -19 -30 -34 -1 -13 -2 -26 -3 -30 -1 -5 -5 -24 -9 -44 -8
-41 -48 -81 -94 -97 -22 -7 -244 -11 -678 -12 l-646 -1 37 58 c21 32 47 74 58
93 11 19 24 40 29 45 4 6 134 213 288 460 154 248 296 477 317 509 222 356
368 589 453 726 56 91 117 188 134 215 100 157 147 236 143 240 -2 2 -413 6
-914 7 -1006 3 -950 -1 -986 69 -10 19 -21 55 -24 80 -7 51 -10 55 -46 64
l-27 7 6 -54z"/>
<path d="M4748 27493 c-10 -2 -18 -8 -19 -11 0 -4 -2 -22 -4 -41 -2 -19 -11
-54 -20 -78 -31 -82 3 -78 -702 -81 l-623 -3 0 -544 0 -545 -34 4 c-46 6 -89
30 -103 58 -16 31 -33 99 -28 108 7 11 -18 37 -40 44 -20 6 -20 1 -20 -359 0
-201 1 -365 2 -365 19 0 53 28 54 44 2 64 29 129 63 151 14 9 43 19 66 22 l40
6 0 -754 0 -754 128 128 128 128 474 -2 c551 -1 555 -2 590 -73 11 -24 22 -63
24 -85 4 -49 3 -47 40 -57 l29 -7 -7 114 c-10 143 -10 349 -1 502 l7 118 -33
-13 c-28 -12 -33 -19 -35 -53 -6 -72 -31 -121 -72 -142 -34 -17 -74 -18 -513
-21 l-476 -3 0 488 0 489 461 -2 c527 -1 522 0 556 -76 11 -24 20 -62 20 -84
0 -31 5 -43 18 -47 9 -2 24 -8 32 -11 13 -5 15 38 15 359 0 201 -3 365 -7 365
-27 0 -55 -25 -56 -50 -1 -38 -20 -102 -35 -120 -37 -45 -38 -45 -533 -48
l-471 -3 1 403 1 403 453 1 c253 1 472 -3 495 -8 68 -15 102 -63 112 -158 2
-14 3 -28 4 -31 1 -6 47 -29 58 -29 3 0 2 60 -2 133 -9 167 -9 296 0 465 8
140 9 137 -37 125z"/>
<path d="M5978 27264 c5 -29 7 -30 57 -38 90 -14 127 -39 144 -97 10 -34 13
-282 13 -1154 0 -612 -3 -1130 -7 -1153 -12 -72 -80 -122 -168 -122 -20 0 -30
-7 -37 -26 -6 -14 -10 -27 -10 -30 0 -2 164 -4 365 -4 201 0 365 2 365 4 0 3
-4 16 -10 30 -7 21 -17 26 -42 26 -42 1 -103 23 -129 46 -41 37 -42 63 -44
949 -1 468 0 853 2 857 2 4 31 -23 66 -60 34 -37 71 -76 82 -88 11 -11 70 -74
130 -138 61 -65 121 -130 135 -145 14 -15 84 -90 157 -166 72 -77 150 -160
173 -185 91 -97 298 -318 357 -380 34 -36 80 -85 103 -110 110 -119 169 -181
238 -252 l74 -77 -1 -56 c0 -70 -16 -127 -39 -148 -23 -21 -97 -47 -134 -47
-21 0 -31 -6 -38 -26 -6 -14 -10 -27 -10 -30 0 -2 164 -4 365 -4 201 0 365 2
365 4 0 3 -4 16 -10 30 -7 19 -17 26 -37 26 -44 0 -101 19 -129 43 -50 43 -50
47 -49 1247 0 1103 1 1115 21 1154 24 46 74 76 134 81 39 3 69 24 70 51 0 7
-110 11 -365 11 l-365 0 6 -21 c9 -31 14 -34 64 -41 87 -13 131 -48 146 -118
4 -18 7 -1036 5 -1595 l-1 -143 -67 72 c-38 39 -88 93 -113 119 -25 26 -103
109 -175 185 -71 76 -150 160 -175 186 -42 44 -211 223 -330 349 -28 30 -111
118 -183 194 -73 77 -150 159 -172 182 -22 23 -98 104 -170 180 l-130 137 2
56 c3 81 21 139 52 160 31 22 107 45 127 37 13 -5 44 29 44 49 0 8 -108 11
-363 12 l-364 0 5 -23z"/>
<path d="M9504 27259 c5 -16 17 -29 26 -30 76 -4 131 -28 162 -72 l23 -32 0
-1155 c0 -1099 -1 -1157 -18 -1192 -21 -42 -59 -63 -132 -74 -51 -7 -65 -17
-65 -44 0 -14 66 -15 578 -14 317 1 591 4 607 7 17 3 49 9 73 12 182 26 410
124 567 244 284 217 469 520 511 836 3 28 8 59 10 70 6 24 5 283 0 310 -2 11
-7 43 -10 70 -16 118 -50 224 -112 352 -63 129 -140 232 -258 348 -160 157
-325 260 -521 324 -186 62 -213 64 -861 66 l-591 3 11 -29z m1161 -242 c17 -4
46 -9 65 -12 44 -8 172 -50 230 -76 83 -38 207 -128 288 -209 176 -175 276
-370 309 -605 9 -64 9 -245 0 -310 -36 -259 -173 -497 -390 -674 -71 -57 -208
-141 -231 -141 -7 0 -16 -4 -21 -9 -15 -15 -179 -60 -248 -68 -34 -4 -196 -8
-360 -8 l-299 0 1 1010 c0 556 0 1033 1 1060 l0 51 313 -2 c171 0 326 -4 342
-7z"/>
<path d="M12856 27266 c9 -30 14 -34 59 -40 90 -14 127 -39 144 -98 10 -33 13
-284 13 -1175 0 -1083 -1 -1133 -18 -1170 -22 -44 -65 -71 -125 -79 -62 -8
-66 -9 -71 -38 l-5 -26 363 0 c200 0 364 2 364 4 0 3 -4 16 -10 30 -7 19 -17
26 -37 26 -45 0 -101 19 -129 44 -45 38 -50 95 -50 601 l1 460 125 3 125 2
585 -585 585 -584 253 -1 c138 0 252 2 252 5 0 2 -5 16 -12 30 -8 18 -19 25
-39 25 -56 0 -135 39 -200 99 -35 33 -288 282 -562 555 -498 495 -499 496
-470 506 136 51 272 157 354 276 48 71 96 176 117 256 24 95 23 281 -2 372
-72 259 -286 447 -581 512 -16 4 -256 8 -533 9 l-503 3 7 -22z m1024 -253
c152 -52 251 -148 303 -293 38 -108 26 -286 -28 -390 -66 -128 -203 -230 -345
-256 -43 -7 -424 -14 -445 -7 -7 2 -10 171 -9 486 1 265 2 483 3 484 0 1 106
1 234 -1 196 -3 241 -7 287 -23z"/>
<path d="M15750 27276 c1 -31 27 -51 67 -53 69 -4 117 -34 137 -88 16 -41 18
-100 19 -668 0 -669 3 -718 53 -897 116 -412 483 -790 899 -924 44 -14 94 -28
110 -31 222 -42 444 -42 630 0 303 69 554 224 755 467 172 208 250 381 306
678 3 19 8 328 9 687 3 620 4 654 23 696 22 50 59 72 136 81 57 7 53 4 61 37
l6 25 -365 1 -364 1 11 -27 c6 -14 12 -27 13 -29 1 -2 23 -5 50 -8 58 -6 117
-37 135 -73 22 -41 24 -1263 3 -1381 -49 -275 -207 -524 -449 -705 -116 -87
-312 -170 -450 -190 -22 -4 -51 -8 -65 -11 -35 -6 -220 -6 -249 0 -14 3 -47 8
-74 11 -28 3 -58 10 -68 16 -11 5 -19 7 -19 5 0 -3 -33 6 -72 20 -349 125
-637 441 -713 781 -8 37 -18 82 -21 98 -11 49 -13 1269 -2 1317 15 70 59 104
145 114 56 7 50 3 58 35 l6 26 -360 0 c-252 0 -361 -4 -361 -11z"/>
<path d="M5329 23823 c-16 -18 -79 -164 -168 -393 -78 -201 -151 -385 -161
-410 -11 -25 -45 -110 -75 -190 -31 -80 -87 -224 -125 -320 -38 -96 -121 -308
-185 -470 -64 -162 -163 -414 -220 -560 -57 -146 -172 -438 -255 -650 -83
-212 -216 -551 -296 -755 -79 -203 -148 -379 -153 -390 -5 -11 -37 -92 -71
-180 -34 -88 -66 -169 -71 -180 -5 -11 -38 -96 -74 -190 -36 -93 -70 -179 -75
-190 -9 -19 -246 -624 -386 -985 -35 -91 -69 -173 -74 -182 -6 -10 -10 -23
-10 -28 0 -6 -8 -30 -19 -53 -10 -23 -58 -143 -106 -267 -48 -124 -93 -238
-100 -255 -7 -16 -31 -77 -53 -135 -22 -58 -83 -213 -135 -345 -118 -298 -467
-1186 -662 -1685 -81 -206 -181 -460 -222 -565 -41 -104 -102 -260 -135 -345
-33 -85 -67 -170 -75 -189 -26 -58 -27 -101 -3 -156 12 -27 62 -147 112 -265
49 -118 96 -228 103 -245 14 -30 696 -1653 822 -1955 36 -85 125 -296 198
-470 73 -173 178 -423 233 -555 55 -132 120 -287 145 -345 24 -58 115 -274
202 -480 86 -206 163 -388 170 -405 8 -16 37 -86 66 -155 49 -119 61 -149 93
-222 29 -68 99 -233 224 -533 71 -170 213 -508 315 -750 102 -242 348 -827
546 -1300 199 -473 366 -869 371 -880 13 -29 113 -268 154 -366 18 -46 95
-229 170 -406 75 -178 136 -325 136 -328 0 -3 10 -16 22 -30 30 -34 59 -33
323 15 235 43 656 120 1375 249 245 44 468 85 495 91 28 5 460 84 960 174
1125 204 2993 543 4200 762 501 91 933 169 960 174 28 5 64 11 80 14 17 3 404
73 860 156 457 83 840 152 853 155 32 8 63 43 459 531 197 243 372 459 390
480 17 21 192 237 389 479 381 469 566 696 1394 1715 288 355 529 650 535 656
5 6 120 147 255 314 476 588 1240 1527 1255 1544 9 9 113 139 195 240 14 17
122 150 240 296 119 146 385 472 590 725 206 253 482 593 614 755 441 542 442
543 441 572 -1 28 -24 58 -179 233 -115 129 -184 207 -341 385 -70 80 -144
163 -164 186 -20 22 -65 74 -101 115 -36 40 -86 96 -111 124 -25 27 -144 163
-264 300 -121 138 -222 252 -225 255 -3 3 -103 115 -222 250 -589 668 -1237
1402 -1363 1545 -45 49 -130 146 -191 215 -60 69 -216 245 -345 391 -128 146
-292 332 -364 414 -71 81 -153 173 -181 204 -28 31 -66 74 -86 96 -19 22 -92
105 -163 185 -182 206 -183 207 -260 295 -38 44 -72 82 -75 85 -3 3 -176 199
-385 435 -320 364 -467 530 -520 589 -5 6 -41 47 -80 91 -38 44 -72 82 -75 85
-3 3 -36 41 -75 85 -38 44 -84 96 -101 115 -18 19 -107 121 -199 225 -92 105
-197 224 -234 265 -36 41 -86 97 -111 125 -25 28 -72 82 -106 120 -297 339
-392 444 -416 463 -16 13 -90 27 -593 117 -510 91 -872 156 -975 175 -58 11
-258 47 -445 80 -187 33 -401 72 -475 85 -74 13 -146 26 -160 29 -14 2 -63 11
-110 20 -47 8 -98 18 -115 20 -16 3 -131 24 -255 46 -124 22 -349 63 -500 90
-151 27 -450 81 -665 119 -214 39 -694 125 -1065 191 -371 66 -762 136 -867
155 -106 19 -280 51 -385 70 -106 19 -355 63 -553 99 -198 36 -376 68 -395 71
-42 7 -690 123 -1150 206 -184 33 -357 64 -385 69 -27 5 -241 43 -475 85 -527
95 -499 92 -531 58z m1869 -448 c906 -163 2500 -449 3542 -636 1042 -187 2485
-445 3205 -575 721 -129 1333 -239 1361 -245 49 -9 57 -16 151 -122 54 -62
441 -499 858 -972 1398 -1583 2796 -3167 3060 -3465 143 -162 551 -623 905
-1025 355 -401 916 -1037 1247 -1412 l603 -683 -548 0 -548 0 -484 381 c-267
209 -512 402 -545 428 -114 90 -400 316 -435 343 -19 14 -82 64 -140 109 -58
46 -168 133 -246 194 -372 292 -1145 899 -1673 1316 -129 101 -255 200 -280
220 -64 49 -653 512 -726 570 -33 26 -139 110 -236 186 -1114 874 -1856 1458
-1866 1467 -15 14 -92 19 862 -60 571 -47 785 -68 800 -79 27 -19 363 -350
2570 -2535 590 -585 1053 -1042 1063 -1050 21 -18 -84 108 -483 576 -247 291
-994 1167 -1658 1949 -1011 1188 -1214 1421 -1240 1428 -18 4 -1627 149 -3577
322 -1950 173 -3555 317 -3567 319 -13 2 -23 2 -23 0 0 -2 622 -966 1383
-2141 761 -1176 1393 -2155 1406 -2176 42 -69 32 -32 -22 84 -30 63 -65 139
-79 169 -44 95 -85 182 -132 283 -25 55 -46 100 -46 102 0 2 -23 52 -51 112
-67 142 -91 196 -124 268 -15 33 -43 93 -61 133 -45 96 -100 215 -129 277 -71
155 -91 197 -125 270 -21 44 -48 103 -60 130 -12 28 -44 97 -71 153 -27 57
-49 105 -49 107 0 2 -18 43 -41 92 -43 92 -63 135 -149 323 -75 162 -126 274
-165 355 -19 39 -49 104 -68 145 -19 41 -61 129 -92 195 -31 66 -68 145 -82
175 -43 92 -103 220 -149 317 -24 50 -44 96 -44 100 0 5 415 -26 923 -69 507
-42 925 -77 929 -77 4 -1 12 -18 17 -38 8 -30 61 -337 88 -508 2 -16 18 -106
34 -200 17 -93 37 -210 45 -260 7 -49 39 -234 69 -410 31 -176 64 -374 75
-440 10 -66 30 -185 44 -265 15 -80 49 -275 76 -435 27 -159 56 -328 64 -375
21 -120 21 -121 61 -360 19 -118 42 -253 51 -300 8 -47 51 -296 94 -555 162
-958 200 -1181 205 -1202 l5 -23 -373 0 c-206 0 -516 3 -690 7 l-316 6 -1473
2276 c-809 1252 -1504 2326 -1543 2386 -40 61 -147 227 -240 370 -92 143 -191
296 -220 340 -28 44 -420 649 -870 1345 -450 696 -1020 1577 -1267 1958 -246
381 -448 695 -448 697 0 7 -102 25 1658 -290z m-1265 -590 c288 -445 1654
-2557 3035 -4692 l2511 -3882 -308 -518 c-277 -466 -4127 -6943 -4813 -8098
-667 -1122 -783 -1315 -788 -1315 -3 0 -86 192 -185 427 -118 282 -179 438
-178 458 3 36 59 334 73 386 6 20 24 113 40 205 51 287 79 436 96 513 9 41 22
109 29 150 22 127 74 399 100 525 14 65 32 158 39 205 8 47 33 183 56 301 41
211 72 374 144 760 20 107 46 240 57 295 11 55 31 161 44 235 13 74 41 225 63
335 22 110 52 265 67 345 14 80 41 222 60 315 18 94 41 213 50 265 9 52 36
194 60 315 24 121 46 238 49 260 4 22 11 60 16 85 6 25 22 108 36 185 14 77
36 196 49 265 14 69 32 166 40 215 9 50 22 119 30 155 7 36 18 90 25 120 6 30
31 163 56 295 25 132 56 299 70 370 14 72 29 153 34 180 5 28 29 160 55 295
42 227 68 365 175 920 22 113 49 257 60 320 12 63 39 205 61 315 22 110 42
224 46 253 3 29 9 54 12 56 3 2 60 -82 125 -187 66 -106 158 -255 206 -332 48
-77 148 -239 222 -360 74 -121 183 -298 241 -392 276 -447 317 -516 317 -534
0 -21 -23 -91 -85 -264 -20 -55 -47 -134 -61 -175 -13 -41 -28 -84 -33 -95 -6
-11 -21 -54 -35 -95 -13 -41 -43 -127 -66 -190 -23 -63 -48 -133 -55 -155 -15
-46 -109 -311 -131 -370 -8 -22 -21 -58 -28 -80 -8 -22 -42 -119 -76 -215 -34
-96 -91 -258 -126 -360 -36 -102 -83 -237 -106 -300 -22 -63 -75 -216 -118
-340 -43 -124 -90 -256 -104 -293 -15 -38 -51 -142 -81 -230 -54 -160 -87
-254 -140 -392 -15 -38 -30 -83 -35 -100 -8 -27 -44 -133 -190 -545 -26 -74
-68 -193 -94 -265 -25 -71 -66 -186 -91 -255 -25 -69 -66 -183 -90 -255 -24
-71 -64 -188 -90 -260 -98 -273 -185 -530 -184 -545 0 -13 1 -13 6 0 3 8 397
800 876 1760 478 960 1107 2223 1398 2806 291 584 529 1067 529 1074 0 6 -33
62 -74 123 -40 62 -95 146 -121 187 -26 41 -58 91 -70 110 -13 19 -65 103
-117 185 -52 83 -133 209 -179 280 -47 72 -129 200 -183 285 -53 85 -139 220
-191 300 -51 80 -163 255 -249 390 -86 135 -205 322 -265 415 -60 94 -157 244
-214 335 -57 91 -152 239 -211 330 -59 91 -178 276 -264 412 -177 278 -321
504 -398 623 -28 44 -114 179 -191 300 -77 121 -182 285 -234 365 -52 80 -114
178 -139 218 -25 40 -72 114 -105 166 -33 51 -100 155 -148 232 -49 76 -151
236 -227 354 -77 118 -154 240 -173 270 -121 198 -321 500 -327 493 -4 -4 -30
-51 -57 -103 -73 -138 -163 -302 -218 -400 -26 -47 -70 -128 -98 -180 -27 -52
-71 -133 -97 -180 -26 -47 -118 -215 -205 -375 -86 -159 -183 -337 -215 -395
-150 -273 -238 -434 -288 -530 -30 -58 -58 -109 -62 -115 -8 -11 -50 -87 -125
-225 -142 -263 -647 -1190 -786 -1442 -88 -158 -159 -291 -159 -295 0 -9 36
40 167 223 59 83 155 216 212 295 58 79 117 162 132 184 15 22 64 90 108 150
98 135 137 189 206 285 29 41 77 107 105 145 28 39 97 133 152 210 56 77 126
175 157 217 338 467 432 597 573 798 67 96 127 180 133 187 5 6 46 62 90 123
44 62 97 135 117 164 20 28 67 94 103 146 36 52 74 105 83 118 l18 23 75 -123
c100 -164 569 -926 681 -1106 80 -127 88 -145 76 -162 -7 -10 -101 -90 -209
-177 -271 -218 -271 -218 -380 -308 -53 -44 -136 -112 -185 -152 -232 -187
-492 -399 -524 -427 -20 -17 -53 -44 -74 -61 -21 -16 -44 -34 -50 -40 -6 -5
-45 -37 -86 -70 -41 -32 -140 -113 -220 -180 -80 -66 -165 -136 -190 -155 -51
-39 -312 -252 -320 -260 -3 -3 -39 -32 -80 -65 -41 -32 -77 -62 -80 -65 -3 -3
-41 -34 -85 -70 -97 -78 -224 -181 -285 -231 -103 -86 -362 -298 -421 -345
-109 -85 -401 -324 -458 -373 -29 -25 -61 -50 -70 -55 -9 -5 -23 -16 -32 -25
-50 -50 -224 -180 -230 -173 -4 4 -43 93 -88 199 l-80 192 205 523 c374 951
1458 3713 1949 4963 836 2129 1652 4208 1670 4253 10 24 21 40 26 35 4 -4 243
-372 532 -818z m7494 -3236 c235 -187 554 -440 708 -563 267 -212 478 -379
939 -745 114 -91 267 -213 340 -271 72 -58 262 -208 421 -335 159 -126 402
-320 541 -430 138 -110 381 -303 540 -429 282 -224 534 -424 919 -731 105 -83
303 -241 440 -350 138 -109 302 -240 365 -290 227 -180 567 -450 687 -544 67
-53 122 -100 122 -105 1 -5 -137 -6 -331 -3 -183 4 -600 10 -926 13 l-592 7
-123 131 c-67 71 -149 159 -182 195 -33 35 -73 78 -90 96 -16 17 -84 89 -150
160 -66 70 -133 142 -150 159 -16 18 -73 78 -125 135 -52 57 -117 127 -145
156 -27 29 -72 77 -100 106 -27 30 -90 97 -140 149 -49 53 -144 154 -210 225
-66 71 -131 141 -145 155 -14 14 -79 84 -145 155 -120 129 -203 218 -346 369
-41 45 -151 162 -244 261 -93 99 -212 225 -264 280 -53 55 -154 163 -226 240
-71 77 -170 183 -220 235 -49 52 -117 124 -151 160 -33 36 -97 103 -141 150
-44 47 -93 99 -107 115 -15 17 -55 59 -89 95 -193 205 -247 260 -253 260 -3 0
4 -17 16 -37 18 -30 202 -355 388 -682 14 -25 38 -67 53 -93 16 -27 29 -51 29
-53 0 -2 20 -38 45 -79 25 -42 45 -79 45 -81 0 -3 10 -22 23 -43 13 -20 37
-62 54 -92 28 -50 91 -164 140 -250 11 -19 32 -56 46 -82 15 -26 48 -85 73
-130 26 -46 57 -101 69 -123 12 -22 51 -92 87 -155 96 -170 281 -498 313 -555
15 -27 53 -95 85 -150 55 -96 75 -132 135 -240 15 -27 43 -75 61 -106 19 -31
34 -60 34 -64 0 -4 8 -19 19 -33 10 -15 29 -47 43 -72 14 -25 35 -62 47 -82
11 -21 31 -55 42 -75 12 -21 33 -58 47 -83 14 -25 56 -98 94 -163 37 -65 68
-120 68 -123 0 -3 8 -18 18 -32 11 -15 36 -58 56 -95 20 -37 46 -84 58 -105
33 -58 47 -86 45 -88 -5 -5 -2049 25 -2055 30 -3 4 -16 57 -28 119 -34 168
-98 478 -144 697 -23 107 -49 236 -60 285 -10 50 -32 155 -48 235 -17 80 -42
201 -56 270 -15 69 -38 181 -52 250 -14 69 -30 145 -36 170 -5 25 -18 88 -28
140 -18 92 -58 282 -155 745 -25 121 -50 243 -55 270 -5 28 -21 104 -35 170
-27 123 -93 438 -145 695 -17 80 -37 177 -45 215 -9 39 -22 106 -30 149 -8 43
-17 86 -19 95 -3 9 -8 32 -11 51 -3 19 -10 51 -15 70 -14 53 -90 426 -90 439
0 7 4 10 10 6 5 -3 202 -159 437 -346z m-6872 -3461 c-4 -24 -11 -59 -15 -78
-5 -19 -19 -87 -30 -150 -12 -63 -44 -225 -71 -360 -27 -135 -92 -461 -145
-725 -53 -264 -101 -502 -106 -530 -29 -142 -243 -1226 -288 -1455 -28 -146
-62 -315 -75 -376 -14 -61 -47 -230 -75 -375 -28 -145 -59 -304 -70 -354 -11
-49 -33 -160 -50 -245 -16 -85 -41 -211 -55 -280 -14 -69 -33 -163 -41 -210
-8 -47 -28 -146 -44 -220 -16 -74 -34 -162 -39 -195 -6 -33 -41 -215 -80 -405
-97 -483 -150 -749 -171 -860 -10 -52 -35 -176 -55 -275 -21 -99 -50 -247 -66
-330 -32 -173 -119 -605 -148 -745 -12 -52 -27 -133 -36 -180 -8 -47 -19 -101
-24 -120 -5 -19 -19 -91 -31 -160 -29 -164 -40 -204 -50 -194 -4 5 -32 65 -60
134 -47 112 -175 408 -251 580 -16 36 -82 191 -148 345 -66 154 -167 390 -225
525 -59 135 -143 332 -188 437 l-81 193 43 117 c24 65 76 204 117 308 41 105
80 206 88 225 7 19 26 69 41 110 14 41 42 113 61 160 19 47 42 103 50 125 8
22 23 60 33 85 11 25 32 81 49 125 59 161 143 381 161 425 10 25 37 95 60 155
23 61 55 144 71 185 113 294 144 376 175 460 20 52 42 109 49 125 8 17 21 48
28 70 8 22 34 90 57 150 23 61 55 146 72 190 33 90 70 189 133 350 24 61 59
153 79 205 20 52 61 160 92 240 31 80 78 204 104 275 26 72 71 189 98 260 47
119 152 392 207 540 99 262 122 325 116 325 -4 0 -25 -26 -47 -57 -36 -52
-324 -453 -447 -623 -26 -36 -55 -76 -64 -89 -54 -75 -93 -129 -110 -151 -11
-14 -44 -61 -74 -105 -55 -80 -164 -232 -193 -270 -9 -11 -67 -92 -130 -180
-183 -255 -248 -344 -269 -370 -13 -15 -233 -323 -272 -380 -19 -27 -93 -131
-164 -230 -72 -99 -136 -188 -143 -198 -7 -10 -56 -78 -108 -151 -52 -72 -111
-154 -129 -181 -19 -28 -38 -52 -41 -55 -4 -3 -41 -54 -83 -115 -59 -86 -220
-312 -335 -472 -7 -10 -17 -25 -22 -33 -5 -8 -11 -12 -14 -9 -7 6 -89 195
-258 589 -152 355 -432 1003 -478 1107 -18 40 -30 79 -27 87 3 8 37 38 75 68
38 29 192 152 342 273 150 121 298 240 330 265 32 25 134 106 226 180 93 75
183 147 200 160 100 81 324 258 346 275 31 23 418 336 463 374 17 14 49 40 70
57 22 18 98 78 170 135 71 57 142 113 156 124 15 11 60 47 100 80 40 33 150
121 245 196 95 75 200 158 232 185 83 69 211 171 402 323 91 72 179 142 195
155 17 14 77 62 135 108 58 45 110 87 116 93 6 5 26 22 45 37 19 15 93 75 164
132 72 58 132 106 133 106 2 0 1 -19 -3 -42z m6351 -1961 c4 -3 -36 -295 -51
-382 -3 -16 -12 -70 -19 -120 -43 -289 -88 -585 -115 -755 -11 -69 -25 -161
-30 -205 -6 -44 -12 -89 -15 -100 -4 -20 -13 -80 -22 -140 -2 -16 -6 -41 -9
-55 -2 -14 -7 -43 -10 -65 -3 -22 -10 -67 -15 -100 -5 -33 -22 -150 -39 -260
-16 -110 -42 -274 -56 -365 -15 -91 -37 -235 -50 -320 -13 -85 -37 -245 -54
-355 -17 -110 -46 -306 -66 -435 -19 -129 -39 -262 -44 -295 -19 -115 -102
-658 -116 -760 -3 -22 -12 -78 -19 -125 -8 -47 -22 -137 -31 -200 -9 -63 -23
-151 -31 -195 -7 -44 -16 -102 -19 -130 -3 -27 -10 -72 -15 -100 -5 -27 -12
-70 -15 -95 -14 -110 -18 -130 -30 -146 -10 -15 -143 -31 -931 -110 -505 -51
-927 -93 -936 -94 -19 0 -16 11 43 137 16 34 38 86 49 115 11 29 27 67 35 83
21 42 114 257 175 405 29 69 56 130 60 135 3 6 13 26 20 45 7 19 21 53 30 75
10 22 63 148 119 280 57 132 106 247 111 256 4 8 22 51 40 95 18 43 40 97 50
119 9 22 51 121 93 220 188 449 319 758 326 773 5 9 28 64 52 122 23 58 58
139 76 180 19 41 39 86 45 100 5 14 16 39 23 55 8 17 35 82 60 145 25 63 50
124 55 135 23 52 50 114 50 119 0 2 14 35 31 73 17 37 37 84 45 103 9 19 19
44 24 55 5 11 21 48 35 82 34 84 73 174 86 196 6 11 8 21 6 23 -5 5 0 13
-1666 -2775 -623 -1041 -1135 -1899 -1138 -1907 -4 -11 2 -13 23 -9 16 3 382
44 814 90 739 80 1628 177 4000 435 553 60 1277 139 1610 175 333 36 629 68
657 72 l53 6 498 621 c274 341 925 1154 1447 1806 522 652 1041 1300 1153
1440 113 140 212 264 220 275 23 31 -159 -158 -412 -425 -49 -52 -133 -140
-185 -195 -53 -56 -132 -139 -175 -185 -44 -47 -123 -130 -175 -185 -53 -56
-130 -137 -171 -181 -41 -44 -158 -167 -260 -274 -102 -107 -192 -202 -200
-210 -8 -9 -80 -85 -160 -170 -80 -84 -156 -165 -169 -179 -13 -14 -60 -64
-105 -111 -45 -47 -165 -173 -266 -280 -101 -107 -229 -242 -284 -300 -172
-179 -435 -457 -606 -640 -146 -156 -267 -283 -382 -401 -43 -44 -44 -44 -193
-58 -60 -6 -398 -40 -750 -75 -706 -71 -725 -73 -725 -68 0 2 12 14 27 26 15
11 48 39 74 61 25 22 68 58 95 81 27 23 171 143 319 268 149 126 292 247 320
269 27 23 65 56 85 73 45 39 233 197 606 509 65 55 180 152 254 215 132 113
270 230 730 615 287 241 321 270 456 385 61 52 160 136 220 187 325 272 590
496 674 568 52 45 191 162 309 261 256 214 332 278 482 405 63 53 161 136 219
184 58 49 161 136 230 194 311 262 400 338 475 401 44 37 172 145 285 240 113
95 230 194 260 220 30 26 120 102 200 169 l145 121 659 0 c525 0 656 -3 649
-12 -25 -32 -2272 -2797 -2928 -3603 -166 -203 -634 -779 -1041 -1280 -407
-500 -1054 -1297 -1439 -1770 -384 -473 -798 -981 -918 -1130 -121 -148 -225
-276 -232 -283 -7 -7 -120 -33 -251 -57 -131 -24 -1008 -183 -1949 -354 -3093
-561 -5232 -949 -6455 -1171 -662 -120 -1206 -218 -1207 -216 -2 2 137 239
308 527 171 288 377 634 457 769 80 135 193 326 252 425 116 193 2029 3412
2265 3810 78 132 665 1120 1305 2195 639 1075 1194 2010 1233 2078 l72 123
648 -5 c357 -2 651 -6 653 -9z m6464 -501 c0 -5 -87 -80 -405 -351 -142 -121
-356 -303 -474 -404 -119 -101 -283 -241 -366 -312 -82 -70 -265 -226 -406
-346 -141 -120 -341 -290 -444 -378 -216 -183 -580 -493 -715 -610 -26 -22
-100 -85 -165 -140 -65 -55 -186 -158 -270 -230 -83 -71 -250 -213 -370 -315
-120 -102 -271 -230 -334 -285 -64 -55 -190 -163 -281 -240 -91 -76 -210 -178
-265 -225 -55 -48 -224 -192 -375 -320 -151 -129 -323 -274 -381 -324 -58 -50
-129 -111 -159 -136 -29 -25 -166 -142 -305 -260 -447 -383 -686 -585 -696
-588 -5 -2 -7 2 -4 10 7 19 98 488 130 673 8 44 21 114 30 155 9 41 23 109 30
150 8 41 53 278 100 525 48 248 93 484 100 525 13 74 83 442 130 675 13 66 38
194 55 285 64 340 191 1002 221 1155 11 55 22 111 24 125 2 14 11 61 19 105
21 108 67 344 72 375 4 25 20 103 29 150 3 14 12 61 20 105 8 44 25 136 39
205 13 69 27 144 31 168 l7 42 86 1 c249 3 1978 14 1981 12 3 -2 -90 -184
-187 -365 -204 -380 -263 -489 -284 -528 -14 -25 -55 -102 -92 -173 -75 -143
-112 -212 -181 -342 -26 -49 -70 -133 -98 -185 -27 -52 -66 -126 -87 -165 -21
-38 -63 -119 -95 -180 -32 -60 -77 -146 -100 -190 -23 -44 -68 -129 -100 -190
-32 -60 -77 -146 -100 -190 -96 -181 -197 -373 -277 -525 -31 -58 -90 -170
-133 -250 -43 -80 -100 -188 -128 -240 -27 -52 -64 -122 -82 -155 -18 -33 -65
-123 -105 -200 -77 -147 -127 -242 -166 -312 -13 -24 -20 -43 -16 -43 4 0 77
79 162 177 85 97 160 181 165 187 6 6 89 101 185 211 96 110 177 202 180 205
3 3 68 77 145 165 166 189 177 202 286 325 101 114 278 316 618 705 374 427
438 500 526 600 44 49 125 142 179 205 55 63 127 147 162 185 88 100 222 252
341 390 38 44 81 94 96 110 14 17 174 199 355 405 l328 375 784 5 c432 3 840
6 908 8 67 1 122 0 122 -2z"/>
<path d="M11601 21434 c-192 -54 -247 -225 -140 -437 56 -109 198 -267 346
-385 133 -106 358 -241 528 -315 388 -170 724 -180 838 -26 27 37 48 135 41
189 -50 341 -620 793 -1204 953 -89 25 -119 29 -240 33 -81 2 -131 -1 -169
-12z"/>
<path d="M7213 18335 c-249 -47 -456 -291 -567 -665 -53 -179 -61 -247 -60
-510 0 -231 2 -252 28 -363 49 -213 126 -367 233 -467 117 -110 232 -141 378
-101 112 31 188 75 270 156 214 213 347 593 346 995 -1 464 -145 809 -386 925
-82 39 -151 48 -242 30z"/>
<path d="M12765 7880 c-240 -32 -588 -191 -872 -400 -165 -122 -364 -336 -429
-462 -58 -113 -77 -226 -52 -310 19 -64 87 -132 155 -154 87 -29 259 -26 383
5 601 152 1241 700 1242 1062 1 200 -155 294 -427 259z"/>
<path d="M3545 3702 c-21 -48 -63 -138 -92 -200 -29 -62 -53 -115 -53 -116 0
-2 -26 -59 -58 -127 -32 -68 -66 -140 -74 -159 -9 -19 -33 -71 -53 -115 -63
-134 -100 -214 -160 -345 -101 -220 -107 -233 -156 -339 -27 -57 -49 -105 -49
-106 0 -2 -29 -64 -65 -140 -36 -75 -65 -138 -65 -140 0 -2 -25 -56 -55 -120
-30 -65 -55 -118 -55 -120 0 -2 -37 -83 -126 -271 -13 -28 -24 -56 -24 -62 0
-7 -4 -12 -10 -12 -5 0 -10 -6 -10 -13 0 -7 -9 -31 -19 -53 -30 -62 -156 -334
-181 -389 -68 -153 -143 -292 -168 -312 -25 -19 -34 -20 -77 -12 -26 5 -63 20
-81 34 l-33 25 -38 -32 c-60 -52 -73 -69 -68 -92 2 -11 7 -38 10 -59 6 -36 11
-40 73 -69 37 -16 107 -45 155 -64 90 -35 368 -169 509 -245 l78 -42 39 18
c70 31 77 43 77 126 -1 73 -1 73 -31 79 -44 9 -103 51 -116 82 -6 15 -8 41 -4
60 6 26 130 322 141 337 4 5 1894 5 1898 0 17 -24 137 -315 142 -347 6 -39 4
-46 -22 -74 -16 -16 -53 -42 -83 -56 l-53 -25 5 -70 c5 -65 21 -96 50 -97 5 0
21 -9 36 -19 l27 -20 130 71 c179 97 384 195 542 258 144 58 146 60 155 141 5
44 4 46 -48 91 l-52 47 -36 -24 c-50 -35 -116 -48 -144 -30 -32 21 -69 73 -97
136 -13 29 -49 107 -80 173 -31 65 -56 119 -56 121 0 1 -21 47 -46 101 -25 55
-56 122 -69 149 -39 84 -91 195 -135 290 -23 50 -73 158 -110 240 -37 83 -96
209 -130 280 -34 72 -69 148 -78 170 -9 22 -35 80 -59 128 -24 48 -43 90 -43
92 0 2 -18 41 -40 86 -22 45 -40 88 -40 96 0 7 -4 13 -10 13 -5 0 -10 6 -10
13 0 8 -13 41 -30 75 -16 33 -65 139 -108 234 -44 95 -95 207 -115 248 -19 41
-60 131 -92 200 -32 69 -78 168 -102 220 -25 52 -52 112 -60 133 l-15 37 -72
0 -71 0 -40 -88z m182 -1018 c92 -209 313 -706 345 -779 22 -49 49 -110 60
-135 11 -25 26 -58 34 -75 16 -33 223 -503 231 -522 4 -10 -148 -13 -742 -13
-594 0 -746 3 -742 13 3 6 108 244 234 527 126 283 292 656 369 829 l139 313
25 -54 c14 -31 35 -77 47 -104z"/>
<path d="M6689 3617 l-32 -50 18 -51 c10 -28 22 -55 27 -61 4 -5 37 -10 72
-11 36 -1 77 -8 93 -16 61 -29 57 57 57 -1453 -1 -1022 -4 -1387 -12 -1408
-15 -36 -66 -57 -145 -60 -61 -3 -62 -3 -80 -41 -32 -67 -31 -87 7 -137 l35
-47 446 0 446 0 36 54 36 55 -27 58 -28 58 -52 -1 c-28 -1 -71 6 -96 14 -38
14 -47 22 -58 55 -11 32 -14 223 -15 993 l-2 953 85 -89 c47 -48 119 -124 160
-168 109 -116 355 -378 425 -453 33 -36 76 -81 95 -102 29 -31 154 -163 323
-343 33 -35 186 -198 287 -306 19 -21 87 -92 150 -160 202 -215 188 -195 184
-248 -2 -26 -9 -63 -15 -84 -10 -31 -18 -38 -54 -48 -24 -7 -65 -13 -91 -14
-62 -2 -68 -6 -84 -58 -7 -24 -17 -47 -21 -53 -3 -5 11 -33 32 -62 l38 -51
446 0 446 0 37 55 36 55 -29 56 -30 56 -62 2 c-88 3 -130 26 -144 78 -16 60
-16 2724 0 2784 10 36 19 46 48 58 20 9 61 16 92 18 31 1 61 5 68 9 6 4 20 31
32 60 l22 53 -33 51 -32 50 -451 0 -451 0 -34 -49 -34 -50 19 -54 c10 -30 23
-58 29 -62 6 -3 39 -7 73 -8 34 -2 75 -9 90 -16 60 -28 57 16 58 -1036 l0
-963 -55 59 c-30 33 -112 120 -181 193 -70 74 -146 154 -169 179 -23 25 -100
106 -170 180 -70 74 -143 151 -161 170 -41 45 -156 167 -283 300 -175 185
-433 458 -575 609 -18 20 -52 55 -74 78 -36 38 -41 47 -38 87 6 130 30 155
149 159 l67 3 29 56 28 56 -32 54 -33 55 -453 0 -452 0 -33 -50z"/>
<path d="M11018 3621 c-17 -25 -31 -53 -30 -61 1 -21 41 -110 50 -111 4 -1 30
-2 57 -3 69 -3 105 -14 141 -41 57 -43 75 -76 434 -770 45 -88 102 -196 125
-240 41 -78 104 -198 275 -530 46 -88 102 -197 127 -243 24 -46 47 -91 52
-100 4 -9 13 -28 20 -41 27 -51 127 -243 193 -371 39 -74 92 -175 118 -225 26
-49 86 -164 133 -255 47 -91 119 -230 160 -310 l76 -145 69 -3 69 -3 37 73
c21 40 72 138 113 218 42 80 104 199 138 265 35 66 94 181 133 255 38 74 92
178 120 230 27 52 83 160 124 240 41 80 106 204 143 275 66 127 134 258 270
520 37 72 93 180 125 240 57 110 136 262 267 515 220 424 233 439 384 444 32
2 61 5 64 7 2 3 15 29 28 59 l24 53 -34 52 -34 52 -449 0 -450 0 -35 -51 -35
-52 24 -59 24 -60 54 0 c75 -1 100 -11 92 -38 -8 -30 -68 -152 -163 -334 -113
-217 -268 -513 -384 -733 -30 -58 -82 -157 -114 -220 -116 -222 -206 -396
-253 -485 -26 -49 -87 -166 -135 -260 -103 -200 -134 -257 -144 -267 -3 -4
-34 48 -69 115 -34 67 -93 181 -130 252 -37 72 -103 198 -146 280 -43 83 -100
191 -126 240 -26 50 -80 153 -120 230 -40 77 -96 185 -125 240 -29 55 -85 163
-125 240 -40 77 -92 176 -115 220 -105 196 -245 477 -245 490 0 19 34 29 99
30 l53 0 23 61 23 61 -35 50 -34 50 -450 0 -449 0 -32 -46z"/>
<path d="M16265 3614 l-35 -54 29 -57 28 -57 65 -2 c78 -2 125 -24 135 -62 10
-36 10 -2779 0 -2815 -10 -37 -63 -59 -142 -61 l-60 -1 -27 -58 -28 -57 36
-54 36 -54 454 0 455 0 35 47 c38 50 39 70 7 137 -18 38 -19 38 -78 40 -78 2
-132 25 -147 61 -15 38 -19 2727 -4 2792 14 59 53 83 139 85 34 1 67 5 73 8 6
4 19 31 29 61 l18 54 -33 50 -33 50 -458 0 -458 0 -36 -53z"/>
<path d="M18875 3617 l-34 -50 21 -56 c11 -31 22 -58 24 -60 2 -2 31 -5 63 -7
71 -2 128 -20 140 -42 4 -9 12 -34 15 -56 4 -21 7 -769 8 -1661 l0 -1623 26
-12 c15 -7 45 -19 66 -26 l39 -14 142 142 141 143 605 -1 c549 -1 655 -4 681
-20 22 -14 40 -73 42 -135 l1 -68 61 -24 61 -24 51 36 51 36 -5 125 c-6 143
-6 504 0 663 l5 108 -54 35 -53 36 -58 -29 -58 -28 -2 -57 c-1 -31 -7 -73 -14
-93 -23 -69 -14 -68 -645 -67 -308 0 -567 1 -576 1 -14 1 -16 116 -15 1284 1
1403 -2 1326 58 1355 15 7 56 14 91 16 68 3 87 10 87 29 1 7 9 30 19 51 l19
40 -34 51 -35 52 -450 0 -450 0 -34 -50z"/>
</g>
</svg>
